<svg xmlns="http://www.w3.org/2000/svg" viewBox="0 0 240 560" fill="none">
  <g fill="#ffffff">
    <!-- tete -->
    <ellipse cx="120" cy="48" rx="24" ry="30"/>
    <!-- cou -->
    <path d="M106 74 H134 L132 100 H108 Z"/>
    <!-- torse (epaules larges, taper en V) -->
    <path d="M82 104 C100 92 140 92 158 104 C168 116 166 150 160 188 C156 216 150 244 144 268 C141 280 138 290 132 296 L108 296 C102 290 99 280 96 268 C90 244 84 216 80 188 C74 150 72 116 82 104 Z"/>
    <!-- bras gauche -->
    <path d="M84 110 C72 124 66 162 62 208 C60 238 60 266 66 286 C70 296 80 296 84 286 C90 266 92 238 94 208 C96 168 98 138 100 120 Z"/>
    <!-- bras droit -->
    <path d="M156 110 C168 124 174 162 178 208 C180 238 180 266 174 286 C170 296 160 296 156 286 C150 266 148 238 146 208 C144 168 142 138 140 120 Z"/>
    <!-- jambe gauche -->
    <path d="M102 286 C99 304 96 348 95 398 C94 446 93 494 96 524 C98 538 106 542 112 540 C117 538 118 526 118 512 C118 470 119 420 120 380 L120 292 Z"/>
    <!-- jambe droite -->
    <path d="M138 286 C141 304 144 348 145 398 C146 446 147 494 144 524 C142 538 134 542 128 540 C123 538 122 526 122 512 C122 470 121 420 120 380 L120 292 Z"/>
  </g>
</svg>
